<?xml version="1.0" encoding="UTF-8" standalone="no"?>
<svg width="790px" height="256px" viewBox="0 0 790 256" version="1.1" xmlns="http://www.w3.org/2000/svg" xmlns:xlink="http://www.w3.org/1999/xlink" xmlns:sketch="http://www.bohemiancoding.com/sketch/ns">
    <!-- Generator: Sketch 3.2.2 (9983) - http://www.bohemiancoding.com/sketch -->
    <title>Slice 1</title>
    <desc>Created with Sketch.</desc>
    <defs></defs>
    <g id="Page-1" stroke="none" stroke-width="1" fill="none" fill-rule="evenodd" sketch:type="MSPage">
        <circle id="Oval-1" fill="#E0E0E0" sketch:type="MSShapeGroup" cx="395" cy="128" r="128"></circle>
        <g id="noun_44708_cc" sketch:type="MSLayerGroup" transform="translate(292.000000, 61.000000)" fill="#A974A2">
            <g id="Group" sketch:type="MSShapeGroup">
                <path d="M61.3585714,70.8848485 C61.3585714,70.8848485 42.3374143,82.4242424 29.2475857,80.9818182 C15.9532286,79.7454545 3.68151429,73.9757576 0.204528571,68 C0.204528571,68 12.0671857,55.0181818 29.0430571,55.0181818 C45.8144,54.8121212 57.4725286,63.6727273 61.5631,65.1151515 C61.5631,65.1151515 59.1087571,66.969697 61.3585714,70.8848485 L61.3585714,70.8848485 Z" id="Shape"></path>
                <g transform="translate(44.996286, 0.000000)" id="Shape">
                    <path d="M86.1065286,62.0242424 C86.1065286,62.0242424 71.1759429,45.5393939 69.7442429,32.3515152 C68.3125429,19.1636364 71.3804714,5.97575758 76.6982143,1.23636364 C76.6982143,1.23636364 91.6288,10.3030303 95.1057857,26.9939394 C98.5827714,43.6848485 92.6514429,56.8727273 91.8333286,61.2 C91.8333286,60.9939394 89.3789857,59.1393939 86.1065286,62.0242424 L86.1065286,62.0242424 Z"></path>
                    <path d="M93.0605,61.4060606 C93.0605,61.4060606 97.3556,39.3575758 106.968443,30.4969697 C116.581286,21.430303 129.057529,16.0727273 135.806971,17.5151515 C135.806971,17.5151515 137.647729,35.030303 126.398657,47.8060606 C115.354114,60.5818182 101.241643,63.4666667 97.3556,65.5272727 C97.3556,65.3212121 97.5601286,62.4363636 93.0605,61.4060606 L93.0605,61.4060606 Z"></path>
                    <path d="M98.3782429,67.1757576 C98.3782429,67.1757576 118.012986,56.6666667 130.898286,58.5212121 C143.988114,60.3757576 155.850771,66.7636364 159.123229,72.9454545 C159.123229,72.9454545 146.851514,85.3090909 129.875643,84.6909091 C113.1043,84.0727273 101.855229,74.8 97.9691857,73.1515152 C97.9691857,72.9454545 100.423529,71.0909091 98.3782429,67.1757576 L98.3782429,67.1757576 Z"></path>
                    <path d="M97.1510714,74.3878788 C97.1510714,74.3878788 117.3994,83.6606061 123.944314,94.9939394 C130.489229,106.533333 132.739043,119.927273 129.875643,126.315152 C129.875643,126.315152 112.695243,124.048485 102.877871,110.036364 C93.0605,96.230303 93.4695571,81.6 92.4469143,77.4787879 C92.2423857,77.4787879 95.1057857,78.3030303 97.1510714,74.3878788 L97.1510714,74.3878788 Z"></path>
                    <path d="M90.8106857,77.6848485 C90.8106857,77.6848485 95.3103143,99.7333333 89.7880429,111.684848 C84.2657714,123.636364 74.8574571,133.527273 67.9034857,134.763636 C67.9034857,134.763636 59.7223429,119.309091 65.2446143,103.030303 C70.7668857,86.9575758 82.6295429,78.7151515 85.4929429,75.4181818 C85.4929429,75.6242424 86.5155857,78.5090909 90.8106857,77.6848485 L90.8106857,77.6848485 Z"></path>
                    <path d="M84.8793571,74.3878788 C84.8793571,74.3878788 69.9487714,90.8727273 57.0634714,93.5515152 C44.1781714,96.230303 30.8838143,94.3757576 25.5660714,89.430303 C25.5660714,89.430303 33.1336286,73.5636364 49.2913857,68.6181818 C65.4491429,63.4666667 78.9480286,68.4121212 83.2431286,68.8242424 C83.4476571,68.8242424 81.6069,71.2969697 84.8793571,74.3878788 L84.8793571,74.3878788 Z"></path>
                    <path d="M52.1547857,58.1090909 C52.1547857,58.1090909 29.8611714,58.1090909 19.4302143,50.2787879 C8.79472857,42.4484848 1.22717143,31.1151515 1.4317,24.1090909 C1.4317,24.1090909 18.2030429,19.1636364 32.7245714,27.8181818 C47.0415714,36.4727273 52.5638429,49.8666667 55.2227143,53.369697 C55.2227143,53.369697 52.1547857,53.7818182 52.1547857,58.1090909 L52.1547857,58.1090909 Z"></path>
                </g>
            </g>
        </g>
    </g>
</svg>