<?xml version="1.0" encoding="UTF-8"?>
<svg width="980px" height="400px" viewBox="0 0 980 400" version="1.1" xmlns="http://www.w3.org/2000/svg" xmlns:xlink="http://www.w3.org/1999/xlink">
    <!-- Generator: Sketch 39 (31667) - http://www.bohemiancoding.com/sketch -->
    <title>Slice 1</title>
    <desc>Created with Sketch.</desc>
    <defs></defs>
    <g id="Page-1" stroke="none" stroke-width="1" fill="none" fill-rule="evenodd">
        <g id="Group-2" transform="translate(362.000000, 72.000000)">
            <circle id="Oval-1" stroke="#76B5A9" cx="128" cy="128" r="128"></circle>
            <g id="noun_44708_cc" transform="translate(25.000000, 62.000000)">
                <g id="Group">
                    <path d="M61.3585714,69.8848485 C61.3585714,69.8848485 42.3374143,81.4242424 29.2475857,79.9818182 C15.9532286,78.7454545 3.68151429,72.9757576 0.204528571,67 C0.204528571,67 12.0671857,54.0181818 29.0430571,54.0181818 C45.8144,53.8121212 57.4725286,62.6727273 61.5631,64.1151515 C61.5631,64.1151515 59.1087571,65.969697 61.3585714,69.8848485 L61.3585714,69.8848485 Z" id="Shape" fill="#76B5A9"></path>
                    <g transform="translate(45.996286, 0.000000)" id="Shape">
                        <path d="M85.1065286,61.0242424 C85.1065286,61.0242424 70.1759429,44.5393939 68.7442429,31.3515152 C67.3125429,18.1636364 70.3804714,4.97575758 75.6982143,0.236363636 C75.6982143,0.236363636 90.6288,9.3030303 94.1057857,25.9939394 C97.5827714,42.6848485 91.6514429,55.8727273 90.8333286,60.2 C90.8333286,59.9939394 88.3789857,58.1393939 85.1065286,61.0242424 L85.1065286,61.0242424 Z" fill="#A974A2"></path>
                        <path d="M92.0605,60.4060606 C92.0605,60.4060606 96.3556,38.3575758 105.968443,29.4969697 C115.581286,20.430303 128.057529,15.0727273 134.806971,16.5151515 C134.806971,16.5151515 136.647729,34.030303 125.398657,46.8060606 C114.354114,59.5818182 100.241643,62.4666667 96.3556,64.5272727 C96.3556,64.3212121 96.5601286,61.4363636 92.0605,60.4060606 L92.0605,60.4060606 Z" fill="#A974A2"></path>
                        <path d="M97.3782429,66.1757576 C97.3782429,66.1757576 117.012986,55.6666667 129.898286,57.5212121 C142.988114,59.3757576 154.850771,65.7636364 158.123229,71.9454545 C158.123229,71.9454545 145.851514,84.3090909 128.875643,83.6909091 C112.1043,83.0727273 100.855229,73.8 96.9691857,72.1515152 C96.9691857,71.9454545 99.4235286,70.0909091 97.3782429,66.1757576 L97.3782429,66.1757576 Z" fill="#A974A2"></path>
                        <path d="M96.1510714,73.3878788 C96.1510714,73.3878788 116.3994,82.6606061 122.944314,93.9939394 C129.489229,105.533333 131.739043,118.927273 128.875643,125.315152 C128.875643,125.315152 111.695243,123.048485 101.877871,109.036364 C92.0605,95.230303 92.4695571,80.6 91.4469143,76.4787879 C91.2423857,76.4787879 94.1057857,77.3030303 96.1510714,73.3878788 L96.1510714,73.3878788 Z" fill="#A974A2"></path>
                        <path d="M89.8106857,76.6848485 C89.8106857,76.6848485 94.3103143,98.7333333 88.7880429,110.684848 C83.2657714,122.636364 73.8574571,132.527273 66.9034857,133.763636 C66.9034857,133.763636 58.7223429,118.309091 64.2446143,102.030303 C69.7668857,85.9575758 81.6295429,77.7151515 84.4929429,74.4181818 C84.4929429,74.6242424 85.5155857,77.5090909 89.8106857,76.6848485 L89.8106857,76.6848485 Z" fill="#A974A2"></path>
                        <path d="M83.8793571,73.3878788 C83.8793571,73.3878788 68.9487714,89.8727273 56.0634714,92.5515152 C43.1781714,95.230303 29.8838143,93.3757576 24.5660714,88.430303 C24.5660714,88.430303 32.1336286,72.5636364 48.2913857,67.6181818 C64.4491429,62.4666667 77.9480286,67.4121212 82.2431286,67.8242424 C82.4476571,67.8242424 80.6069,70.2969697 83.8793571,73.3878788 L83.8793571,73.3878788 Z" fill="#A974A2"></path>
                        <path d="M51.1547857,57.1090909 C51.1547857,57.1090909 28.8611714,57.1090909 18.4302143,49.2787879 C7.79472857,41.4484848 0.227171429,30.1151515 0.4317,23.1090909 C0.4317,23.1090909 17.2030429,18.1636364 31.7245714,26.8181818 C46.0415714,35.4727273 51.5638429,48.8666667 54.2227143,52.369697 C54.2227143,52.369697 51.1547857,52.7818182 51.1547857,57.1090909 L51.1547857,57.1090909 Z" fill="#6B9EB8"></path>
                    </g>
                </g>
            </g>
        </g>
    </g>
</svg>