<?xml version="1.0" encoding="UTF-8" standalone="no"?>
<svg width="40px" height="40px" viewBox="0 0 40 40" version="1.1" xmlns="http://www.w3.org/2000/svg" xmlns:xlink="http://www.w3.org/1999/xlink" xmlns:sketch="http://www.bohemiancoding.com/sketch/ns">
    <!-- Generator: Sketch 3.3 (11970) - http://www.bohemiancoding.com/sketch -->
    <title>Slice 1</title>
    <desc>Created with Sketch.</desc>
    <defs></defs>
    <g id="Page-1" stroke="none" stroke-width="1" fill="none" fill-rule="evenodd" sketch:type="MSPage">
        <path d="M19.99,0 C8.94,0 0,8.95 0,20 C0,31.05 8.94,40 19.99,40 C31.04,40 40,31.05 40,20 C40,8.95 31.04,0 19.99,0 L19.99,0 Z M33.84,12 L27.94,12 C27.29,9.5 26.38,7.1 25.18,4.88 C28.86,6.14 31.92,8.69 33.84,12 L33.84,12 Z M20,4.07 C21.67,6.47 22.97,9.14 23.82,12 L16.18,12 C17.03,9.14 18.33,6.47 20,4.07 L20,4.07 Z M4.52,24 C4.19,22.72 4,21.38 4,20 C4,18.62 4.19,17.28 4.52,16 L11.27,16 C11.11,17.31 11,18.64 11,20 C11,21.36 11.11,22.69 11.28,24 L4.52,24 L4.52,24 Z M6.15,28 L12.05,28 C12.7,30.5 13.61,32.9 14.81,35.13 C11.13,33.87 8.07,31.31 6.15,28 L6.15,28 Z M12.05,12 L6.15,12 C8.07,8.69 11.13,6.13 14.81,4.87 C13.61,7.1 12.7,9.5 12.05,12 L12.05,12 Z M20,35.93 C18.34,33.53 17.04,30.86 16.18,28 L23.82,28 C22.96,30.86 21.66,33.53 20,35.93 L20,35.93 Z M24.68,24 L15.32,24 C15.13,22.69 15,21.36 15,20 C15,18.64 15.13,17.31 15.32,16 L24.68,16 C24.87,17.31 25,18.64 25,20 C25,21.36 24.87,22.69 24.68,24 L24.68,24 Z M25.19,35.12 C26.39,32.89 27.3,30.5 27.95,28 L33.85,28 C31.92,31.31 28.86,33.86 25.19,35.12 L25.19,35.12 Z M28.72,24 C28.88,22.69 29,21.36 29,20 C29,18.64 28.89,17.31 28.72,16 L35.47,16 C35.8,17.28 36,18.62 36,20 C36,21.38 35.81,22.72 35.47,24 L28.72,24 L28.72,24 Z" id="Shape" fill="#FFFFFF" sketch:type="MSShapeGroup"></path>
    </g>
</svg>